# Blender 3.5.0
# www.blender.org
mtllib untitled.mtl
o Cube
v 0.129024 2.019485 -2.075489
v 0.129024 0.019485 -2.075489
v 0.129024 2.019485 2.088720
v 0.129024 0.019485 2.088720
v -0.129024 2.019485 -2.075489
v -0.129024 0.019485 -2.075489
v -0.129024 2.019485 2.088720
v -0.129024 0.019485 2.088720
v 0.129024 1.019485 -2.075489
v -0.129024 1.019485 2.088720
v 0.129024 1.019485 2.088720
v -0.129024 1.019485 -2.075489
vn -0.0000 1.0000 -0.0000
vn -0.0000 -0.0000 1.0000
vn -1.0000 -0.0000 -0.0000
vn -0.0000 -1.0000 -0.0000
vn 1.0000 -0.0000 -0.0000
vn -0.0000 -0.0000 -1.0000
vt 0.888238 0.001907
vt 0.001907 0.857515
vt 0.945072 0.412841
vt 0.884424 0.001907
vt 0.945073 0.001907
vt 0.412841 0.857515
vt 0.888238 0.857515
vt 0.998093 0.827589
vt 0.001907 0.001907
vt 0.884424 0.857515
vt 0.412841 0.001907
vt 0.998093 0.416655
vt 0.941258 0.001907
vt 0.416655 0.001907
vt 0.998093 0.412841
vt 0.831403 0.001907
vt 0.998093 0.001907
vt 0.827589 0.001907
vt 0.941258 0.857515
vt 0.945072 0.827589
vt 0.416655 0.857515
vt 0.831403 0.857515
vt 0.827589 0.857515
vt 0.945073 0.416655
vt 0.945072 0.207374
vt 0.207374 0.857515
vt 0.622122 0.857515
vt 0.945072 0.622122
vt 0.207374 0.001907
vt 0.998093 0.622122
vt 0.998093 0.207374
vt 0.622122 0.001907
s 0
usemtl Material.001
f 1/1/1 5/13/1 7/19/1 3/7/1
f 11/30/2 3/8/2 7/20/2 10/28/2
f 10/27/3 7/21/3 5/14/3 12/32/3
f 6/16/4 2/4/4 4/10/4 8/22/4
f 9/26/5 1/2/5 3/9/5 11/29/5
f 12/31/6 5/15/6 1/3/6 9/25/6
f 6/17/6 12/31/6 9/25/6 2/5/6
f 2/6/5 9/26/5 11/29/5 4/11/5
f 8/23/3 10/27/3 12/32/3 6/18/3
f 4/12/2 11/30/2 10/28/2 8/24/2
