# Blender 3.5.0
# www.blender.org
mtllib untitled.mtl
o Object.1
v 38.200008 0.000009 -19.783590
v 45.494507 0.000009 -9.743580
v 38.200008 10.000008 -19.783590
v 100.000008 10.000010 0.296439
v 45.494507 10.000009 -9.743581
v 45.494507 10.000010 10.336459
v 38.200008 10.000011 20.376482
v 100.000008 0.000010 0.296440
v 38.200008 0.000012 20.376482
v 45.494507 0.000011 10.336460
v 0.000010 10.000010 10.336459
v 0.000010 0.000011 10.336460
v 0.000010 10.000009 -9.743581
v 0.000010 0.000009 -9.743580
v 71.186218 9.168495 -2.738314
v 80.067780 10.526646 0.003820
v 70.703087 12.327870 -2.738315
v 79.584656 13.686020 0.003820
v 71.186218 9.168495 2.745973
v 70.703087 12.327869 2.745973
v 63.005672 7.917544 10.355448
v 83.679893 11.079002 2.460575
v 62.522549 11.076919 10.355448
v 83.196770 14.238377 2.460575
v 63.005672 7.917544 5.271662
v 62.522549 11.076919 5.271661
v 67.623245 8.623653 3.846022
v 67.140121 11.783029 3.846022
v 67.623253 8.623654 -3.838364
v 67.140121 11.783030 -3.838364
v 63.005672 7.917544 -5.264022
v 62.522549 11.076920 -5.264022
v 63.005672 7.917544 -10.347789
v 62.522549 11.076919 -10.347789
v 83.679893 11.079002 -2.452915
v 83.196770 14.238377 -2.452916
vn -0.8090 -0.0000 0.5878
vn 0.3090 -0.0000 -0.9511
vn -0.0000 1.0000 -0.0000
vn 0.3090 -0.0000 0.9511
vn -0.0000 -1.0000 -0.0000
vn -0.8090 -0.0000 -0.5878
vn -0.0000 -0.0000 1.0000
vn -1.0000 -0.0000 -0.0000
vn -0.0000 -0.0000 -1.0000
vn -0.2886 -0.0441 0.9564
vn 0.9885 0.1512 -0.0000
vn -0.2886 -0.0441 -0.9564
vn 0.3491 0.0534 0.9356
vn -0.9885 -0.1512 -0.0000
vn -0.2885 -0.0441 -0.9564
vn 0.3491 0.0534 -0.9356
vn -0.1512 0.9885 -0.0000
vn 0.1512 -0.9885 -0.0000
vt 0.814786 0.694332
vt 0.732825 0.000186
vt 0.324612 0.539699
vt 0.900029 0.380320
vt 0.814786 0.778556
vt 0.390268 0.459613
vt 0.816427 0.000000
vt 0.000000 0.285642
vt 0.732004 0.687499
vt 0.031016 0.825342
vt 0.732825 0.000186
vt 0.816427 0.519435
vt 0.816427 0.380309
vt 0.065656 0.365728
vt 0.732004 0.771723
vt 0.900029 0.000000
vt 0.649223 0.694332
vt 0.227962 0.408620
vt 0.324612 0.371426
vt 0.732825 0.519621
vt 0.649223 0.778556
vt 0.649223 0.000000
vt 0.732825 0.519621
vt 0.355628 0.000000
vt 0.649223 0.519435
vt 0.649223 0.453916
vt 0.732004 0.771723
vt 0.732004 0.687499
vt 0.816427 0.000010
vt 0.552574 0.416722
vt 0.900029 0.380299
vt 0.649223 0.687499
vt 0.324612 0.042892
vt 0.816427 0.380309
vt 0.732286 0.687499
vt 0.649223 0.782450
vt 0.162306 0.000000
vt 0.816427 0.760608
vt 0.649223 0.519621
vt 0.900029 0.760619
vt 0.486917 0.825342
vt 0.732286 0.519621
vt 0.732286 0.612664
vt 0.759005 0.602074
vt 0.063618 0.930890
vt 0.732286 0.537914
vt 0.759005 0.612748
vt 0.086544 0.855857
vt 0.759005 0.612580
vt 0.785726 0.602074
vt 0.925896 0.866167
vt 0.759005 0.537830
vt 0.732286 0.612664
vt 0.902971 0.791134
vt 0.759005 0.647925
vt 0.759005 0.687499
vt 0.109469 0.930890
vt 0.785726 0.647925
vt 0.732286 0.687415
vt 0.880045 0.866167
vt 0.926748 0.176050
vt 0.812409 0.580332
vt 0.173088 1.000000
vt 0.926748 0.351913
vt 0.785726 0.685656
vt 0.107083 0.825342
vt 0.900029 0.175957
vt 0.785707 0.580332
vt 0.816427 0.935277
vt 0.900029 0.351819
vt 0.812447 0.685656
vt 0.882431 0.760619
vt 0.812409 0.537830
vt 0.649223 0.778556
vt 0.130585 1.000000
vt 0.785707 0.537830
vt 0.675942 0.778640
vt 0.858929 0.935277
vt 0.649223 0.817420
vt 0.785707 0.602074
vt 0.118666 0.960990
vt 0.675942 0.817503
vt 0.759005 0.602074
vt 0.870848 0.896267
vt 0.785707 0.537830
vt 0.759005 0.648009
vt 0.054422 0.960990
vt 0.759005 0.537830
vt 0.785725 0.647925
vt 0.935093 0.896267
vt 0.759005 0.686872
vt 0.812428 0.644577
vt 0.042502 1.000000
vt 0.785725 0.686789
vt 0.785726 0.644577
vt 0.947012 0.935277
vt 0.812428 0.602074
vt 0.900029 0.000094
vt 0.000000 1.000000
vt 0.785726 0.602074
vt 0.926748 0.000000
vt 0.989515 0.935277
vt 0.900029 0.175957
vt 0.785726 0.644577
vt 0.066004 0.825342
vt 0.926748 0.175863
vt 0.812447 0.644577
vt 0.923510 0.760619
s 0
usemtl Mat_0
f 1/1/1 2/5/1 3/9/1
f 4/12/2 1/2/2 3/7/2
f 4/10/3 3/8/3 5/14/3
f 5/14/3 6/18/3 4/10/3
f 4/10/3 6/18/3 7/19/3
f 7/20/4 8/22/4 4/11/4
f 9/25/4 8/22/4 7/20/4
f 10/30/5 8/24/5 9/26/5
f 10/28/6 9/27/6 6/17/6
f 11/31/7 10/29/7 6/16/7
f 12/34/7 10/29/7 11/31/7
f 13/39/8 12/35/8 11/32/8
f 13/37/3 11/33/3 5/14/3
f 5/13/9 14/40/9 13/38/9
f 2/4/9 14/40/9 5/13/9
f 14/41/5 2/6/5 12/36/5
f 14/42/8 12/35/8 13/39/8
f 12/36/5 2/6/5 10/30/5
f 10/30/5 2/6/5 8/24/5
f 6/17/6 9/27/6 7/21/6
f 5/14/3 11/33/3 6/18/3
f 8/23/2 1/2/2 4/12/2
f 3/9/1 2/5/1 5/15/1
f 2/6/5 1/3/5 8/24/5
f 15/43/10 16/46/10 17/49/10
f 17/49/10 16/46/10 18/52/10
f 19/55/11 15/44/11 20/58/11
f 20/58/11 15/44/11 17/50/11
f 16/47/12 19/56/12 18/53/12
f 18/53/12 19/56/12 20/59/12
f 21/61/13 22/64/13 23/67/13
f 23/67/13 22/64/13 24/70/13
f 25/73/14 21/62/14 26/76/14
f 26/76/14 21/62/14 23/68/14
f 27/79/15 25/74/15 28/82/15
f 28/82/15 25/74/15 26/77/15
f 29/85/14 27/80/14 30/88/14
f 30/88/14 27/80/14 28/83/14
f 31/91/10 29/86/10 32/94/10
f 32/94/10 29/86/10 30/89/10
f 33/97/14 31/92/14 34/100/14
f 34/100/14 31/92/14 32/95/14
f 35/103/16 33/98/16 36/106/16
f 36/106/16 33/98/16 34/101/16
f 22/65/11 35/104/11 24/71/11
f 24/71/11 35/104/11 36/107/11
f 36/108/17 18/54/17 24/72/17
f 24/72/17 18/54/17 20/60/17
f 24/72/17 20/60/17 23/69/17
f 23/69/17 20/60/17 28/84/17
f 23/69/17 28/84/17 26/78/17
f 18/54/17 36/108/17 17/51/17
f 17/51/17 36/108/17 34/102/17
f 17/51/17 34/102/17 30/90/17
f 30/90/17 34/102/17 32/96/17
f 30/90/17 28/84/17 17/51/17
f 17/51/17 28/84/17 20/60/17
f 22/66/18 16/48/18 35/105/18
f 35/105/18 16/48/18 15/45/18
f 35/105/18 15/45/18 33/99/18
f 33/99/18 15/45/18 29/87/18
f 33/99/18 29/87/18 31/93/18
f 16/48/18 22/66/18 19/57/18
f 19/57/18 22/66/18 21/63/18
f 19/57/18 21/63/18 27/81/18
f 27/81/18 21/63/18 25/75/18
f 27/81/18 29/87/18 19/57/18
f 19/57/18 29/87/18 15/45/18
