# Blender 3.5.0
# www.blender.org
mtllib untitled.mtl
o Cube
v 0.129024 2.019485 -2.075489
v 0.129024 0.019485 -2.075489
v 0.129024 2.019485 2.088720
v 0.129024 0.019485 2.088720
v -0.129024 2.019485 -2.075489
v -0.129024 0.019485 -2.075489
v -0.129024 2.019485 2.088720
v -0.129024 0.019485 2.088720
v -0.129024 1.376616 -2.075489
v -0.129024 1.376616 2.088720
v 0.129024 1.376616 -2.075489
v 0.129024 1.376616 2.088720
v -0.129024 0.698050 -2.075489
v -0.129024 0.698050 2.088720
v 0.129024 0.698050 -2.075489
v 0.129024 0.698050 2.088720
vn -0.0000 1.0000 -0.0000
vn -0.0000 -1.0000 -0.0000
vn -0.0000 -0.0000 -1.0000
vn -0.0000 -0.0000 1.0000
vn 1.0000 -0.0000 -0.0000
vn -1.0000 -0.0000 -0.0000
vt 0.891525 0.000194
vt 0.945860 0.836803
vt 0.418692 0.870744
vt 0.891137 0.000194
vt 0.836803 0.870744
vt 0.945860 0.418692
vt 0.891525 0.870744
vt 0.418692 0.000194
vt 0.999806 0.418304
vt 0.891137 0.870744
vt 0.999806 0.000194
vt 0.836803 0.000194
vt 0.945472 0.000194
vt 0.999806 0.836803
vt 0.000194 0.000194
vt 0.837191 0.000194
vt 0.999806 0.418692
vt 0.418304 0.000194
vt 0.945472 0.870744
vt 0.000194 0.870744
vt 0.945860 0.418304
vt 0.837191 0.870744
vt 0.945860 0.000194
vt 0.418304 0.870744
vt 0.134589 0.000194
vt 0.999806 0.702408
vt 0.134589 0.870744
vt 0.945860 0.283909
vt 0.945860 0.702408
vt 0.553088 0.870744
vt 0.553088 0.000194
vt 0.999806 0.283909
vt 0.999806 0.560550
vt 0.276447 0.000194
vt 0.276447 0.870744
vt 0.945860 0.142052
vt 0.945860 0.560550
vt 0.694945 0.870744
vt 0.694945 0.000194
vt 0.999806 0.142052
s 0
usemtl Material
f 1/1/1 5/13/1 7/19/1 3/7/1
f 6/16/2 2/4/2 4/10/2 8/22/2
f 11/29/3 9/26/3 5/14/3 1/2/3
f 16/40/4 14/36/4 8/23/4 4/11/4
f 15/38/5 16/39/5 4/12/5 2/5/5
f 9/25/6 10/27/6 7/20/6 5/15/6
f 13/34/6 14/35/6 10/27/6 9/25/6
f 1/3/5 3/8/5 12/31/5 11/30/5
f 3/9/4 7/21/4 10/28/4 12/32/4
f 15/37/3 13/33/3 9/26/3 11/29/3
f 2/6/3 6/17/3 13/33/3 15/37/3
f 6/18/6 8/24/6 14/35/6 13/34/6
f 11/30/5 12/31/5 16/39/5 15/38/5
f 12/32/4 10/28/4 14/36/4 16/40/4
